<svg xmlns="http://www.w3.org/2000/svg" xmlns:xlink="http://www.w3.org/1999/xlink" width="2000" height="1213" viewBox="0 0 2000 1213">
  <defs>
    <filter id="Rectangle_377" x="0" y="0" width="2000" height="1213" filterUnits="userSpaceOnUse">
      <feOffset dy="3" input="SourceAlpha"/>
      <feGaussianBlur stdDeviation="40" result="blur"/>
      <feFlood flood-color="#333836" flood-opacity="0.051"/>
      <feComposite operator="in" in2="blur"/>
      <feComposite in="SourceGraphic"/>
    </filter>
    <filter id="Rectangle_22" x="0" y="0" width="2000" height="1213" filterUnits="userSpaceOnUse">
      <feOffset dy="3" input="SourceAlpha"/>
      <feGaussianBlur stdDeviation="40" result="blur-2"/>
      <feFlood flood-color="#333836" flood-opacity="0.051"/>
      <feComposite operator="in" in2="blur-2"/>
      <feComposite in="SourceGraphic"/>
    </filter>
    <clipPath id="clip-path">
      <g transform="matrix(1, 0, 0, 1, 0, 0)" filter="url(#Rectangle_377)">
        <rect id="Rectangle_377-2" data-name="Rectangle 377" width="1760" height="973" transform="translate(80 5093)" fill="#e2ebeb"/>
      </g>
    </clipPath>
  </defs>
  <g id="Group_450" data-name="Group 450" transform="translate(40 -4976)">
    <g transform="matrix(1, 0, 0, 1, -40, 4976)" filter="url(#Rectangle_22)">
      <rect id="Rectangle_22-2" data-name="Rectangle 22" width="1760" height="973" transform="translate(120 117)" fill="#e2ebeb"/>
    </g>
    <g id="Mask_Group_73" data-name="Mask Group 73" opacity="0.3" clip-path="url(#clip-path)">
      <g id="Group_71" data-name="Group 71" transform="translate(1559 947.881)">
        <g id="Ellipse_54" data-name="Ellipse 54" transform="translate(-17 3964.12)" fill="none" stroke="#a6c3c3" stroke-width="2">
          <circle cx="187.5" cy="187.5" r="187.5" stroke="none"/>
          <circle cx="187.5" cy="187.5" r="186.5" fill="none"/>
        </g>
        <g id="Ellipse_55" data-name="Ellipse 55" transform="translate(-55 3926.12)" fill="none" stroke="#a6c3c3" stroke-width="2">
          <circle cx="226" cy="226" r="226" stroke="none"/>
          <circle cx="226" cy="226" r="225" fill="none"/>
        </g>
        <g id="Ellipse_56" data-name="Ellipse 56" transform="translate(-96 3885.12)" fill="none" stroke="#a6c3c3" stroke-width="2">
          <circle cx="266.5" cy="266.5" r="266.5" stroke="none"/>
          <circle cx="266.5" cy="266.5" r="265.5" fill="none"/>
        </g>
      </g>
      <g id="Group_448" data-name="Group 448" transform="translate(-16 1432.881)">
        <g id="Ellipse_54-2" data-name="Ellipse 54" transform="translate(-17 3964.12)" fill="none" stroke="#a6c3c3" stroke-width="2">
          <circle cx="187.5" cy="187.5" r="187.5" stroke="none"/>
          <circle cx="187.5" cy="187.5" r="186.5" fill="none"/>
        </g>
        <g id="Ellipse_55-2" data-name="Ellipse 55" transform="translate(-55 3926.12)" fill="none" stroke="#a6c3c3" stroke-width="2">
          <circle cx="226" cy="226" r="226" stroke="none"/>
          <circle cx="226" cy="226" r="225" fill="none"/>
        </g>
        <g id="Ellipse_56-2" data-name="Ellipse 56" transform="translate(-96 3885.12)" fill="none" stroke="#a6c3c3" stroke-width="2">
          <circle cx="266.5" cy="266.5" r="266.5" stroke="none"/>
          <circle cx="266.5" cy="266.5" r="265.5" fill="none"/>
        </g>
      </g>
      <g id="Group_449" data-name="Group 449" transform="translate(1467 1799.881)">
        <g id="Ellipse_54-3" data-name="Ellipse 54" transform="translate(17 3998.12)" fill="none" stroke="#a6c3c3" stroke-width="2">
          <circle cx="268.5" cy="268.5" r="268.5" stroke="none"/>
          <circle cx="268.5" cy="268.5" r="267.5" fill="none"/>
        </g>
        <g id="Ellipse_55-3" data-name="Ellipse 55" transform="translate(-37 3944.12)" fill="none" stroke="#a6c3c3" stroke-width="2">
          <circle cx="323.5" cy="323.5" r="323.5" stroke="none"/>
          <circle cx="323.5" cy="323.5" r="322.5" fill="none"/>
        </g>
        <g id="Ellipse_56-3" data-name="Ellipse 56" transform="translate(-96 3885.12)" fill="none" stroke="#a6c3c3" stroke-width="2">
          <circle cx="381.5" cy="381.5" r="381.5" stroke="none"/>
          <circle cx="381.5" cy="381.5" r="380.5" fill="none"/>
        </g>
      </g>
    </g>
  </g>
</svg>
